<?xml version="1.0" standalone="no"?>
<!DOCTYPE svg PUBLIC "-//W3C//DTD SVG 20010904//EN"
 "http://www.w3.org/TR/2001/REC-SVG-20010904/DTD/svg10.dtd">
<svg version="1.0" xmlns="http://www.w3.org/2000/svg"
 width="226.000000pt" height="226.000000pt" viewBox="0 0 226.000000 226.000000"
 preserveAspectRatio="xMidYMid meet">
<metadata>
Created by potrace 1.14, written by Peter Selinger 2001-2017
</metadata>
<g transform="translate(0.000000,226.000000) scale(0.100000,-0.100000)"
fill="#000000" stroke="none">
<path d="M74 2250 c-12 -4 -31 -21 -43 -36 l-21 -27 2 -669 3 -670 33 -29 32
-29 300 0 300 0 0 735 0 735 -292 -1 c-161 0 -303 -4 -314 -9z"/>
<path d="M790 1925 l0 -335 701 2 701 3 29 33 30 33 -3 271 -3 270 -33 29 -32
29 -695 0 -695 0 0 -335z"/>
<path d="M790 1130 l0 -340 340 0 340 0 0 340 0 340 -340 0 -340 0 0 -340z
m180 120 l0 -90 65 0 65 0 0 90 0 90 120 0 120 0 0 -30 0 -30 -90 0 -90 0 0
-60 0 -60 90 0 90 0 0 -125 0 -125 -30 0 -30 0 0 95 0 95 -60 0 -60 0 0 -95 0
-95 -125 0 -125 0 0 30 0 30 95 0 95 0 0 65 0 65 -95 0 -95 0 0 120 0 120 30
0 30 0 0 -90z"/>
<path d="M1580 735 l0 -736 306 3 306 3 29 33 29 33 -2 670 -3 671 -33 29 -32
29 -300 0 -300 0 0 -735z"/>
<path d="M74 660 c-12 -4 -31 -21 -43 -36 -21 -27 -22 -33 -19 -297 l3 -269
33 -29 32 -29 695 0 695 0 0 335 0 335 -687 -1 c-379 0 -698 -4 -709 -9z"/>
</g>
</svg>
